General                          : ChattChitto RG - Movies [R2L]
==========
Complete name                    : Harry Potter And The Deathly Hallows 2010 - Part 1 720p BRRip H264 [ChattChitto RG]
Format                           : MPEG-4
Format profile                   : Base Media
Codec ID                         : isom
File size                        : 2.81 GiB
Duration                         : 2h 26mn
Overall bit rate                 : 2 758 Kbps
Encoded date                     : UTC 2011-04-01 18:04:38

Video
==========
ID                               : 1
Format                           : AVC
Format/Info                      : Advanced Video Codec
Format profile                   : High@L4.1
Format settings, CABAC           : Yes
Format settings, ReFrames        : 4 frames
Codec ID                         : avc1
Codec ID/Info                    : Advanced Video Coding
Duration                         : 2h 26mn
Bit rate mode                    : Variable
Bit rate                         : 2 400 Kbps
Maximum bit rate                 : 18.4 Mbps
Width                            : 1 280 pixels
Height                           : 528 pixels
Display aspect ratio             : 2.40:1
Frame rate mode                  : Constant
Frame rate                       : 23.976 fps
Color space                      : YUV
Chroma subsampling               : 4:2:0
Bit depth                        : 8 bits
Scan type                        : Progressive
Bits/(Pixel*Frame)               : 0.148
Stream size                      : 2.45 GiB (87%)
Writing library                  : x264 core 114 r1913 5fd3dce
Encoded date                     : UTC 2011-04-01 09:56:33

Audio
==========
ID                               : 2
Format                           : AAC
Format/Info                      : Advanced Audio Codec
Format profile                   : LC
Codec ID                         : 40
Duration                         : 2h 26mn
Bit rate mode                    : Variable
Bit rate                         : 352.8 Kbps
Maximum bit rate                 : 462 Kbps
Channel(s)                       : 6 channels
Channel positions                : Front: L C R, Side: L R, LFE
Sampling rate                    : 48.0 KHz
Compression mode                 : Lossy
Stream size                      : 373 MiB (13%)
Language                         : English
Encoded date                     : UTC 2011-04-01 18:05:25

Subtitles                        : English | French | Spanish


----------------------------------------------------
IMDB Link: http://www.imdb.com/title/tt0926084/
----------------------------------------------------



Screen Shots:
==============    
http://www.chattchitto.net/chattchittorg/movies/brrip/2011/hp7/1.png 
http://www.chattchitto.net/chattchittorg/movies/brrip/2011/hp7/2.png 
http://www.chattchitto.net/chattchittorg/movies/brrip/2011/hp7/3.png 
http://www.chattchitto.net/chattchittorg/movies/brrip/2011/hp7/4.png 
http://www.chattchitto.net/chattchittorg/movies/brrip/2011/hp7/5.png 
http://www.chattchitto.net/chattchittorg/movies/brrip/2011/hp7/6.png 
http://www.chattchitto.net/chattchittorg/movies/brrip/2011/hp7/7.png



ScreenShots Comparison:
=========================  
http://screenshotcomparison.com/comparison/39844



Plot:
======
As Harry races against time and evil to destroy the Horcruxes, he uncovers the existence of three most powerful objects in the wizarding world: the Deathly Hallows.



Release Info:
==============
original name .... : Harry Potter And The Deathly Hallows 2010 - Part 1 720p BRRip H264 [ChattChitto RG]
ripper.............: TWiZTED
encoder............: Recalled2Life (R2L)
video codec........: H264/.MP4
video bitrate......: 2400 Kbps
audio codec........: AAC-LC
aspect ratio.......: 2.40:1
resolution.........: 1280 x 528
genre..............: Adventure | Family | Fantasy
runtime............: 2h 26mn
language...........: English
rating.............: PG-13
subtitles..........: English | French | Spanish
sample.............: Yes
2ch Audio..........: 2ch Audio for XBox Viewers
Compatibility .....: XBox | PS3 | WD Live



Source:
========
Harry.Potter.And.The.Deathly.Hallows.Part.1.720p.BluRay.x264-TWiZTED  THANKS!



Notes:
=======
ChattChitto RG Encourages Burning this Film with ConvertXtoDVD and Playing with VLC media player.
XBox 360 | PS3 | WD Live - Compatible 
Enhanced for your viewing pleasure ;)